<svg width="300" height="112" viewBox="0 0 300 112" fill="none" xmlns="http://www.w3.org/2000/svg">
<g clip-path="url(#clip0_1_49)">
<path d="M47.3323 102.815L48.7516 102.801C50.9688 102.779 53.4374 99.5753 56.1503 95.6873L107.424 21.5819L114.269 21.5142L113.78 22.8827C112.965 25.1628 112.272 28.1174 112.216 29.486L109.607 95.1626C109.426 100.617 109.387 102.206 112.313 102.179L113.021 102.172L112.654 103.197L95.7212 103.364L96.0887 102.339L102.914 102.271L102.997 102.044C102.046 101.485 102.09 98.6444 102.162 96.7125L102.793 81.1462L67.6835 81.4896L57.838 95.6704C57.1996 96.5964 56.7402 97.4741 56.4549 98.2744C55.5071 100.927 56.4694 102.728 59.1243 102.702L63.4668 102.658L63.0992 103.683L46.9648 103.84L47.3323 102.815ZM102.876 79.1007L104.793 31.7177C104.824 29.8994 105.265 28.4197 105.712 27.1648L104.914 27.1721C104.67 27.8563 103.874 29.3409 102.223 31.7418L69.1101 79.432L102.873 79.1007H102.876Z" fill="#3d3d3d"/>
<path d="M133.8 11.9854C137.444 13.0807 143.844 12.6745 147.64 12.9018C166.908 14.0478 179.459 25.4554 179.459 42.0734C179.459 58.6914 167.331 69.098 151.511 70.5487L148.876 70.6817V71.4723C155.073 72.1324 160.61 75.9889 163.509 80.5684L170.1 90.9821C173.487 96.3329 178.799 104.428 183.006 104.428C184.227 104.428 185.487 104.063 186.778 102.96L189.68 100.455L190.403 101.396L187.504 103.901C183.301 107.52 179.73 108.974 176.621 108.974C169.872 108.974 165.288 102.136 161.139 95.7284L151.91 81.492C147.56 74.7679 144.792 71.3418 138.858 71.3418H137.277V69.1004H143.341C159.364 69.1004 167.994 59.6417 167.994 42.0758C167.994 24.51 159.367 15.1818 143.341 15.1818H129.632V15.3148C131.213 16.8961 131.873 19.1375 131.873 22.1695V99.4205C131.873 105.748 132.664 106.408 138.991 106.408H146.637V107.595H109.989V106.408H114.602C120.93 106.408 121.59 105.748 121.59 99.4205V20.9775C121.59 14.6499 116.121 4.60605 109.989 0C121.481 9.16616 128.087 10.2663 133.803 11.9854H133.8Z" fill="#3d3d3d"/>
<path d="M259.469 108.971C251.855 113.405 243.103 109.329 243.103 109.329C232.66 104.851 222.601 86.9709 222.601 86.9709L214.601 75.0677C210.829 69.4486 208.45 66.419 203.551 64.637L202.245 64.1607L202.185 62.7245L207.192 64.5475C220.425 69.3639 227.299 65.8943 226.833 54.6294C226.369 43.4202 218.992 34.7932 205.759 29.9744L194.436 25.8519V25.9365C195.787 27.4259 196.392 29.0604 196.472 31.0068L199.392 92.5344C199.562 96.5916 199.697 97.7836 205.212 97.919L210.855 98.1052C211.085 98.1898 211.242 98.3978 211.252 98.6371C211.259 98.8112 211.08 98.9345 210.913 98.8741L180.787 98.6202C180.557 98.5356 180.4 98.3276 180.39 98.0883C180.383 97.9142 180.562 97.7909 180.729 97.8513L185.453 97.6796C188.318 97.5757 190.461 97.8827 190.482 92.5368C190.492 90.4744 190.449 88.3055 190.362 86.2334L187.946 27.1551C187.777 23.0979 187.385 22.9988 182.027 20.298L175.117 16.9976L206.566 28.7727C223.987 35.1148 235.839 46.839 236.306 58.0821C236.734 68.3944 227.007 71.7649 213.979 67.9374L211.806 67.2314L211.827 67.7367C216.963 70.0216 221.639 74.161 224.156 77.9691C224.156 77.9691 234.304 98.8475 241.645 104.348C248.985 109.849 256.437 109.491 259.145 107.852C259.822 107.441 260.4 106.826 260.886 106.135C263.265 102.762 263.079 98.1946 260.567 94.9208C259.493 93.5233 257.953 91.9977 255.741 90.4623L252.627 88.7988L252.59 87.4109L255.383 89.749C255.383 89.749 262.344 93.7458 263.311 99.9403C263.331 100.069 263.362 100.194 263.364 100.32C263.476 104.45 261.848 107.566 259.469 108.974V108.971Z" fill="#3d3d3d"/>
<path d="M299.185 105.197C296.552 105.267 295.8 103.983 293.264 99.5801L263.113 46.532C262.484 45.427 261.65 43.0309 261.258 41.1764L261.024 40.0666L254.863 40.2286L245.148 100.852L246.664 100.811L248.555 89.2074L248.831 87.5246L255.187 48.5098C255.494 46.5465 255.477 45.3351 255.361 44.779L256.082 44.7597C256.297 45.78 256.631 46.9817 257.504 48.4469L279.223 86.7194L250.668 87.4545L251.002 89.1228L280.161 88.3708L287.297 100.946C288.189 102.506 289.555 104.8 290.691 105.235L290.73 105.419L284.586 105.581L284.763 106.418L300.002 106.016L299.826 105.18L299.188 105.197H299.185Z" fill="#3d3d3d"/>
<path d="M91.0063 32.5131C90.0561 33.8115 88.8858 34.8029 88.5643 35.4557L87.6938 35.6177C87.8171 35.3372 88.1218 33.9252 87.7785 33.4392C86.3205 31.2123 83.5786 29.1354 77.4034 28.9419C65.239 28.5623 52.2527 34.3024 44.9386 43.292C36.1665 54.0709 41.2755 59.5184 46.2684 64.608C50.7802 69.2068 54.5375 74.1586 48.0117 82.1762C41.4399 90.2519 30.8666 95.4866 21.6351 95.1989C11.8959 94.8943 9.4297 87.556 17.7303 76.5958L20.6075 72.7973L18.4048 72.7224L0 96.2628L0.773719 96.7584L3.98707 93.047C4.60363 92.3337 5.43296 91.8236 6.35901 91.6495C7.12789 91.5068 8.04184 91.5576 8.8881 92.1766C8.8881 92.1766 8.8881 92.1766 8.89294 92.1766C11.4027 95.1022 14.6475 96.6617 20.4625 96.8431C34.2298 97.2734 48.8193 90.912 56.9337 80.9407C66.3803 69.3325 61.3632 63.1911 56.2373 57.9685C51.757 53.4011 47.5813 49.1215 53.7953 41.4859C59.7626 34.1525 67.6859 30.3491 76.0469 30.6103C86.2358 30.9294 85.2155 38.2798 79.681 45.5987L76.7264 49.489L78.6389 49.4697L98.1681 24.4399L91.0039 32.5156L91.0063 32.5131Z" fill="#3d3d3d"/>
</g>
<defs>
<clipPath id="clip0_1_49">
<rect width="300" height="111.038" fill="#3d3d3d"/>
</clipPath>
</defs>
</svg>
