<svg width="11" height="6" viewBox="0 0 11 6" fill="none" xmlns="http://www.w3.org/2000/svg">
<path d="M5.9839 5.18878C5.98397 5.08218 5.96298 4.97663 5.92213 4.87817C5.88129 4.77972 5.82139 4.6903 5.74589 4.61506L1.36827 0.237431C1.21461 0.0927109 1.01063 0.013534 0.799577 0.0166925C0.588524 0.019851 0.387002 0.105096 0.237748 0.25435C0.0884948 0.403603 0.0032495 0.605126 9.10393e-05 0.816179C-0.00306742 1.02723 0.0761094 1.23121 0.22083 1.38487L4.59846 5.76249C4.71198 5.87591 4.85656 5.95314 5.01396 5.98442C5.17135 6.01569 5.33448 5.99962 5.48274 5.93822C5.631 5.87683 5.75773 5.77287 5.84693 5.63948C5.93613 5.50608 5.9838 5.34924 5.9839 5.18878Z" fill="white"/>
<path d="M10.3623 0.81121C10.3622 0.650741 10.3146 0.493902 10.2254 0.360509C10.1362 0.227117 10.0094 0.123155 9.86116 0.0617601C9.7129 0.000365065 9.54977 -0.0157089 9.39237 0.0155692C9.23498 0.0468472 9.09039 0.124074 8.97687 0.237492L4.59925 4.61512C4.45453 4.76877 4.37535 4.97275 4.37851 5.18381C4.38167 5.39486 4.46691 5.59638 4.61617 5.74564C4.76542 5.89489 4.96694 5.98013 5.178 5.98329C5.38905 5.98645 5.59303 5.90727 5.74668 5.76255L10.1243 1.38493C10.1998 1.30969 10.2597 1.22027 10.3005 1.12181C10.3414 1.02336 10.3624 0.917802 10.3623 0.81121Z" fill="white"/>
</svg>
