<svg width="60" height="60" viewBox="0 0 60 60" fill="none" xmlns="http://www.w3.org/2000/svg">
<rect x="59.5" y="59.5" width="59" height="59" rx="5.5" transform="rotate(-180 59.5 59.5)" stroke="#CACACA"/>
<path d="M30.3536 21.6464C30.1583 21.4512 29.8417 21.4512 29.6464 21.6464L26.4645 24.8284C26.2692 25.0237 26.2692 25.3403 26.4645 25.5355C26.6597 25.7308 26.9763 25.7308 27.1716 25.5355L30 22.7071L32.8284 25.5355C33.0237 25.7308 33.3403 25.7308 33.5355 25.5355C33.7308 25.3403 33.7308 25.0237 33.5355 24.8284L30.3536 21.6464ZM30 37L30.5 37L30.5 22L30 22L29.5 22L29.5 37L30 37Z" fill="white"/>
</svg>
