<svg xmlns="http://www.w3.org/2000/svg" style="display:none">
  <symbol id="icon-basket-1" viewBox="0 0 24 24">
    <path d="M7.5 7.67V6.7C7.5 4.45 9.31 2.24 11.56 2.03C14.24 1.77 16.5 3.88 16.5 6.51V7.89" stroke="currentColor" stroke-width="1.5" stroke-miterlimit="10" stroke-linecap="round" stroke-linejoin="round"/>
    <path d="M8.99995 22H14.9999C19.0199 22 19.7399 20.39 19.9499 18.43L20.6999 12.43C20.9699 9.99 20.2699 8 15.9999 8H7.99995C3.72995 8 3.02995 9.99 3.29995 12.43L4.04995 18.43C4.25995 20.39 4.97995 22 8.99995 22Z" stroke="currentColor" stroke-width="1.5" stroke-miterlimit="10" stroke-linecap="round" stroke-linejoin="round"/>
    <path d="M15.4955 13H15.5045" stroke="currentColor" stroke-width="1.5" stroke-linecap="round" stroke-linejoin="round"/>
    <path d="M8.49451 13H8.50349" stroke="currentColor" stroke-width="1.5" stroke-linecap="round" stroke-linejoin="round"/>
  </symbol>
	<symbol id="icon-basket-2" viewBox="0 0 24 24" fill="none">
		<path d="M7.5 7.67001V6.70001C7.5 4.45001 9.31 2.24001 11.56 2.03001C14.24 1.77001 16.5 3.88001 16.5 6.51001V7.89001" stroke="currentColor" stroke-opacity="0.5" stroke-miterlimit="10" stroke-linecap="round" stroke-linejoin="round"/>
		<path d="M9.00001 22H15C19.02 22 19.74 20.39 19.95 18.43L20.7 12.43C20.97 9.99 20.27 8 16 8H8.00001C3.73001 8 3.03001 9.99 3.30001 12.43L4.05001 18.43C4.26001 20.39 4.98001 22 9.00001 22Z" stroke="currentColor" stroke-opacity="0.5" stroke-miterlimit="10" stroke-linecap="round" stroke-linejoin="round"/>
		<path d="M15.4955 13H15.5045" stroke="currentColor" stroke-opacity="0.5" stroke-linecap="round" stroke-linejoin="round"/>
		<path d="M8.49451 13H8.50349" stroke="currentColor" stroke-opacity="0.5" stroke-linecap="round" stroke-linejoin="round"/>
	</symbol>
  <symbol id="icon-favorites-1" viewBox="0 0 24 24">
    <path d="M12.62 20.81C12.28 20.93 11.72 20.93 11.38 20.81C8.48 19.82 2 15.69 2 8.69C2 5.6 4.49 3.1 7.56 3.1C9.38 3.1 10.99 3.98 12 5.34C13.01 3.98 14.63 3.1 16.44 3.1C19.51 3.1 22 5.6 22 8.69C22 15.69 15.52 19.82 12.62 20.81Z" stroke="currentColor" stroke-width="1.5" stroke-linecap="round" stroke-linejoin="round"/>
  </symbol>
  <symbol id="icon-search-1" viewBox="0 0 24 24">
    <g clip-path="url(#clip0_168_473)">
      <path d="M23.7617 22.5481L18.1527 16.9391C20.4615 14.2112 21.19 10.4783 20.0753 7.07944C18.9606 3.68061 16.1616 1.10614 12.6833 0.276291C9.20508 -0.553562 5.54606 0.4817 3.01816 3.0096C0.48752 5.54298 -0.547742 9.202 0.282111 12.6803C1.11196 16.1585 3.68642 18.9576 7.08526 20.0723C10.4814 21.1869 14.2143 20.4612 16.9449 18.1496L22.5539 23.7587C22.8908 24.0818 23.4249 24.0764 23.7535 23.7477C24.0822 23.4163 24.0877 22.8822 23.7645 22.5481H23.7617ZM1.75832 10.3167C1.75832 8.04623 2.65938 5.8689 4.26431 4.26397C5.86924 2.65904 8.04657 1.75798 10.317 1.75798C12.5875 1.75798 14.7648 2.65904 16.3698 4.26397C17.9747 5.8689 18.8757 8.04623 18.8757 10.3167C18.8757 12.5871 17.9747 14.7645 16.3698 16.3694C14.7648 17.9743 12.5875 18.8754 10.317 18.8754C8.04657 18.8754 5.87198 17.9716 4.26705 16.3667C2.66212 14.7617 1.75832 12.5871 1.75832 10.3167Z" fill="currentColor"/>
    </g>
    <defs>
      <clipPath id="clip0_168_473">
        <rect width="24" height="24" fill="currentColor"/>
      </clipPath>
    </defs>
  </symbol>
	<symbol id="icon-play-1" viewBox="0 0 35 35" fill="none">
		<circle cx="17.5" cy="17.5" r="17.5" fill="white"/>
		<path d="M22.5 16.634C23.1667 17.0189 23.1667 17.9811 22.5 18.366L15.75 22.2631C15.0833 22.648 14.25 22.1669 14.25 21.3971L14.25 13.6029C14.25 12.8331 15.0833 12.352 15.75 12.7369L22.5 16.634Z" fill="#ED6F2D"/>
	</symbol>
	<symbol id="icon-arrow-1" viewBox="0 0 13 8" fill="none">
		<path d="M12.3536 4.35355C12.5488 4.15829 12.5488 3.84171 12.3536 3.64645L9.17157 0.464466C8.97631 0.269204 8.65973 0.269204 8.46447 0.464466C8.2692 0.659728 8.2692 0.976311 8.46447 1.17157L11.2929 4L8.46447 6.82843C8.2692 7.02369 8.2692 7.34027 8.46447 7.53553C8.65973 7.7308 8.97631 7.7308 9.17157 7.53553L12.3536 4.35355ZM0 4V4.5H12V4V3.5H0V4Z" fill="currentColor"/>
	</symbol>
</svg>