<svg width="37" height="42" viewBox="0 0 37 42" fill="none" xmlns="http://www.w3.org/2000/svg">
<path d="M1 17.7557C1.01451 13.2979 2.87216 9.02823 6.1643 5.88594C9.45643 2.74364 13.9134 0.986149 18.5547 1.00008C23.1959 1.01402 27.6414 2.79824 30.913 5.96023C34.1846 9.12223 36.0144 13.403 35.9999 17.8608V18.0512C35.4923 24.1325 32.6705 29.8211 28.0733 34.0309C25.6141 36.4843 22.8678 38.6563 19.8891 40.5038C19.5039 40.8238 19.0116 41 18.5022 41C17.9929 41 17.5006 40.8238 17.1154 40.5038C12.6748 37.7278 8.77743 34.2231 5.60147 30.1498C2.76889 26.5973 1.16039 22.2846 1 17.8126L1 17.7557Z" stroke="white" stroke-width="1.5" stroke-miterlimit="10" stroke-linecap="round" stroke-linejoin="round"/>
<path d="M18.5004 23.4676C21.5981 23.4676 24.1093 21.0557 24.1093 18.0805C24.1093 15.1053 21.5981 12.6934 18.5004 12.6934C15.4028 12.6934 12.8916 15.1053 12.8916 18.0805C12.8916 21.0557 15.4028 23.4676 18.5004 23.4676Z" stroke="white" stroke-width="1.5" stroke-miterlimit="10" stroke-linecap="round" stroke-linejoin="round"/>
</svg>
