<svg width="45" height="45" viewBox="0 0 45 45" fill="none" xmlns="http://www.w3.org/2000/svg">
<path d="M16.875 35.625C16.875 37.0312 16.4812 38.3625 15.7875 39.4875C14.4937 41.6625 12.1125 43.125 9.375 43.125C6.6375 43.125 4.25625 41.6625 2.9625 39.4875C2.26875 38.3625 1.875 37.0312 1.875 35.625C1.875 31.4812 5.23125 28.125 9.375 28.125C13.5188 28.125 16.875 31.4812 16.875 35.625Z" stroke="white" stroke-opacity="0.51" stroke-width="1.5" stroke-miterlimit="10" stroke-linecap="round" stroke-linejoin="round"/>
<path d="M6.45264 35.6241L8.30889 37.4803L12.3026 33.7866" stroke="white" stroke-opacity="0.51" stroke-width="1.5" stroke-linecap="round" stroke-linejoin="round"/>
<path d="M33.2839 13.2187C32.8339 13.1437 32.3651 13.125 31.8776 13.125H13.1276C12.6026 13.125 12.0964 13.1625 11.6089 13.2375C11.8714 12.7125 12.2464 12.225 12.6964 11.775L18.7901 5.6625C21.3589 3.1125 25.5214 3.1125 28.0901 5.6625L31.3714 8.98117C32.5714 10.1624 33.2089 11.6624 33.2839 13.2187Z" stroke="white" stroke-opacity="0.51" stroke-width="1.5" stroke-linecap="round" stroke-linejoin="round"/>
<path d="M41.25 22.5V31.875C41.25 37.5 37.5 41.25 31.875 41.25H14.3063C14.8875 40.7625 15.3937 40.1625 15.7875 39.4875C16.4812 38.3625 16.875 37.0312 16.875 35.625C16.875 31.4812 13.5188 28.125 9.375 28.125C7.125 28.125 5.11875 29.1187 3.75 30.675V22.5C3.75 17.4 6.825 13.8375 11.6062 13.2375C12.0937 13.1625 12.6 13.125 13.125 13.125H31.875C32.3625 13.125 32.8313 13.1437 33.2812 13.2187C38.1187 13.7812 41.25 17.3625 41.25 22.5Z" stroke="white" stroke-opacity="0.51" stroke-width="1.5" stroke-linecap="round" stroke-linejoin="round"/>
<path d="M41.25 23.4375H35.625C33.5625 23.4375 31.875 25.125 31.875 27.1875C31.875 29.25 33.5625 30.9375 35.625 30.9375H41.25" stroke="white" stroke-opacity="0.51" stroke-width="1.5" stroke-linecap="round" stroke-linejoin="round"/>
</svg>
