<svg width="45" height="12" viewBox="0 0 45 12" fill="none" xmlns="http://www.w3.org/2000/svg">
<g opacity="0.5" clip-path="url(#clip0_509_2388)">
<path fill-rule="evenodd" clip-rule="evenodd" d="M7.98356 2.90182H6.6972C4.1132 2.90182 1.90721 9.09818 4.95385 9.09273H6.91724C8.05126 9.09273 8.88627 9.48545 8.5139 10.5382L8.00613 11.9891H5.92426L4.23168 11.9727C2.07082 11.9564 0.671625 10.9418 0.169494 9.40364C-0.377773 7.74 0.395171 4.28182 2.61809 2.06182C3.91573 0.774545 5.70422 0 8.00049 0H12.2432L11.5775 1.81636C11.1769 2.91818 10.3814 2.90727 9.87361 2.90182C9.83976 2.90182 9.8059 2.90182 9.77205 2.90182H7.98356ZM31.4201 4.55455H24.5878C23.4594 4.55455 22.9459 4.85455 22.7372 5.47091L22.094 7.45091H28.9264C30.0548 7.45091 30.5682 7.15091 30.7769 6.53455L31.4201 4.55455ZM22.9234 9.10364H29.7558L29.1126 11.0836C28.9038 11.7 28.396 12 27.262 12H20.4296L21.0728 10.02C21.2816 9.40364 21.7894 9.10364 22.9234 9.10364ZM26.1731 0.0109091H33.0055L32.3623 1.99091C32.1536 2.60727 31.6458 2.90727 30.5118 2.90727H23.6794L24.3226 0.927273C24.5313 0.310909 25.0391 0.0109091 26.1731 0.0109091ZM15.8258 2.89636H17.5297C18.9797 2.89636 18.6468 4.62545 17.9134 6.31091C17.2645 7.79455 16.1249 9.10909 14.7595 9.10909H11.9273C10.7932 9.10909 10.2742 9.40909 10.0541 10.0255L9.35455 12H11.4364L13.4675 11.9836C15.2729 11.9727 16.7398 11.8473 18.4719 10.3636C20.2942 8.79818 22.4212 4.73455 22.0545 2.38909C21.7668 0.545455 20.7287 0.00545455 18.2124 0.00545455H13.6368L10.9738 7.44545H12.6889C13.6763 7.44545 14.184 7.44545 14.7144 6.08182L15.8258 2.89636ZM33.4963 12H30.2692L34.6135 0H37.8406L35.9901 5.16545H36.0296C36.4132 4.70182 36.8025 4.30909 37.1918 3.92182C37.2426 3.87273 37.2877 3.82364 37.3385 3.77455L41.0452 0H45.0002L38.8844 5.29636L41.4289 12H38.9577C38.1679 12 37.8068 11.5364 37.457 10.4836L36.3173 7.06909L34.8786 8.22545L33.4963 12Z" fill="white"/>
</g>
<defs>
<clipPath id="clip0_509_2388">
<rect width="45" height="12" fill="white"/>
</clipPath>
</defs>
</svg>
