<svg width="45" height="45" viewBox="0 0 45 45" fill="none" xmlns="http://www.w3.org/2000/svg">
<path d="M41.25 11.25V15.7875C41.25 18.75 39.375 20.625 36.4125 20.625H30V7.51875C30 5.4375 31.7063 3.75 33.7875 3.75C35.8313 3.76875 37.7063 4.59375 39.0563 5.94375C40.4063 7.3125 41.25 9.1875 41.25 11.25Z" stroke="white" stroke-width="1.5" stroke-miterlimit="10" stroke-linecap="round" stroke-linejoin="round"/>
<path d="M3.75 13.125V39.375C3.75 40.9313 5.51245 41.8125 6.74995 40.875L9.95625 38.475C10.7062 37.9125 11.7563 37.9875 12.4313 38.6625L15.5437 41.7938C16.275 42.525 17.475 42.525 18.2063 41.7938L21.3563 38.6438C22.0125 37.9875 23.0625 37.9125 23.7938 38.475L27 40.875C28.2375 41.7938 30 40.9125 30 39.375V7.5C30 5.4375 31.6875 3.75 33.75 3.75H13.125H11.25C5.625 3.75 3.75 7.10625 3.75 11.25V13.125Z" stroke="white" stroke-width="1.5" stroke-miterlimit="10" stroke-linecap="round" stroke-linejoin="round"/>
<path d="M11.25 16.875H22.5" stroke="white" stroke-width="1.5" stroke-linecap="round" stroke-linejoin="round"/>
<path d="M12.6562 24.375H21.0938" stroke="white" stroke-width="1.5" stroke-linecap="round" stroke-linejoin="round"/>
</svg>
