<svg width="24" height="24" viewBox="0 0 24 24" fill="none" xmlns="http://www.w3.org/2000/svg">
<g clip-path="url(#clip0_168_473)">
<path d="M23.7617 22.5481L18.1527 16.9391C20.4615 14.2112 21.19 10.4783 20.0753 7.07944C18.9606 3.68061 16.1616 1.10614 12.6833 0.276291C9.20508 -0.553562 5.54606 0.4817 3.01816 3.0096C0.48752 5.54298 -0.547742 9.202 0.282111 12.6803C1.11196 16.1585 3.68642 18.9576 7.08526 20.0723C10.4814 21.1869 14.2143 20.4612 16.9449 18.1496L22.5539 23.7587C22.8908 24.0818 23.4249 24.0764 23.7535 23.7477C24.0822 23.4163 24.0877 22.8822 23.7645 22.5481H23.7617ZM1.75832 10.3167C1.75832 8.04623 2.65938 5.8689 4.26431 4.26397C5.86924 2.65904 8.04657 1.75798 10.317 1.75798C12.5875 1.75798 14.7648 2.65904 16.3698 4.26397C17.9747 5.8689 18.8757 8.04623 18.8757 10.3167C18.8757 12.5871 17.9747 14.7645 16.3698 16.3694C14.7648 17.9743 12.5875 18.8754 10.317 18.8754C8.04657 18.8754 5.87198 17.9716 4.26705 16.3667C2.66212 14.7617 1.75832 12.5871 1.75832 10.3167Z" fill="white"/>
</g>
<defs>
<clipPath id="clip0_168_473">
<rect width="24" height="24" fill="white"/>
</clipPath>
</defs>
</svg>
