<svg width="16" height="16" viewBox="0 0 16 16" fill="none" xmlns="http://www.w3.org/2000/svg">
<path d="M10.2783 13.1814C10.2777 12.7864 10.3835 12.3986 10.5843 12.0585L5.53717 9.11897C5.34193 9.45428 5.06231 9.73239 4.7259 9.92572C4.38949 10.1191 4.00825 10.2209 3.62025 10.2208C3.03146 10.2205 2.46655 9.98656 2.05021 9.57023C1.63387 9.15389 1.40014 8.5892 1.3999 8.00041C1.40014 7.4117 1.63428 6.84721 2.05064 6.43102C2.467 6.01482 3.03154 5.78092 3.62025 5.78092C4.00838 5.78075 4.38977 5.8824 4.72633 6.07573C5.06289 6.26907 5.34265 6.54732 5.53803 6.8827L10.5808 3.93888C10.3824 3.59957 10.2778 3.21342 10.2783 2.82032C10.2784 2.52863 10.3361 2.23976 10.4478 1.97031C10.5596 1.70087 10.7231 1.45603 10.9294 1.24985C11.1358 1.04368 11.3808 0.880204 11.6503 0.768686C11.9199 0.657168 12.2086 0.59986 12.5003 0.599976C12.7919 0.599976 13.0806 0.657309 13.3499 0.768901C13.6192 0.880493 13.8638 1.0441 14.0699 1.25028C14.276 1.45647 14.4396 1.70137 14.5511 1.97074C14.6626 2.24012 14.7199 2.52879 14.7198 2.82032C14.7199 3.11181 14.6626 3.40036 14.5511 3.66968C14.4396 3.93901 14.2761 4.18381 14.0699 4.38993C13.8638 4.59604 13.6192 4.75938 13.3499 4.87088C13.0806 4.98237 12.7918 5.0397 12.5003 5.03959C12.1121 5.03981 11.7306 4.93836 11.3938 4.74521C11.057 4.55205 10.7767 4.27412 10.5808 3.93888L5.53803 6.8827C5.73589 7.22191 5.84018 7.60771 5.83973 8.00041C5.84038 8.39324 5.73577 8.77917 5.53717 9.11811L10.5843 12.0576C10.7798 11.723 11.0597 11.4455 11.396 11.2528C11.7322 11.0601 12.1128 10.9589 12.5003 10.9593C12.7919 10.9593 13.081 11.0168 13.3503 11.1284C13.6197 11.2401 13.8643 11.4037 14.0704 11.61C14.2765 11.8163 14.4401 12.0612 14.5515 12.3307C14.663 12.6002 14.72 12.8889 14.7198 13.1805C14.7198 13.7691 14.4862 14.3337 14.0699 14.7499C13.6537 15.1661 13.089 15.4 12.5003 15.4C11.9115 15.4002 11.347 15.1665 10.9303 14.7505C10.5136 14.3345 10.279 13.7701 10.2783 13.1814V13.1814Z" stroke="#ED6F2D" stroke-width="1.2" stroke-linecap="round"/>
</svg>
